{
	"asset":{
		"generator":"Khronos glTF Blender I/O v5.0.21",
		"version":"2.0"
	},
	"scene":0,
	"scenes":[
		{
			"name":"Scene",
			"nodes":[
				13
			]
		}
	],
	"nodes":[
		{
			"name":"Cube.001"
		},
		{
			"name":"Head_Armature",
			"rotation":[
				-0.045568741858005524,
				2.6410810960442177e-07,
				-6.29073255709045e-08,
				0.9989612102508545
			],
			"translation":[
				9.708049251641593e-13,
				0.07836490124464035,
				-8.316710591316223e-07
			]
		},
		{
			"children":[
				1
			],
			"name":"Neck_Armature",
			"rotation":[
				0.18948860466480255,
				-9.681242545411806e-07,
				3.9832360698710545e-07,
				0.9818829298019409
			],
			"scale":[
				1,
				0.9999998807907104,
				0.9999999403953552
			],
			"translation":[
				1.2198441909361257e-11,
				0.20984230935573578,
				-3.959983587265015e-06
			]
		},
		{
			"name":"Shoulder.L_Armature",
			"rotation":[
				0.06510159373283386,
				0.003908304497599602,
				-0.8827713131904602,
				0.465254008769989
			],
			"scale":[
				1.0000001192092896,
				1,
				1
			],
			"translation":[
				0.06692073494195938,
				0.17557238042354584,
				-0.004949562251567841
			]
		},
		{
			"name":"Shoulder.R_Armature",
			"rotation":[
				-0.10866130143404007,
				0.08708476275205612,
				0.8784737586975098,
				0.4570480287075043
			],
			"scale":[
				1.0000001192092896,
				1,
				0.9999999403953552
			],
			"translation":[
				-0.0669226124882698,
				0.17557542026042938,
				-0.004944832995533943
			]
		},
		{
			"children":[
				2,
				3,
				4
			],
			"name":"Chest_Armature",
			"rotation":[
				-0.036062274128198624,
				1.224340962835413e-06,
				-6.718214251577592e-08,
				0.9993495345115662
			],
			"scale":[
				1,
				0.9999999403953552,
				1
			],
			"translation":[
				-4.641508965369523e-12,
				0.22671860456466675,
				7.278080374817364e-06
			]
		},
		{
			"children":[
				5
			],
			"name":"Spine_Armature",
			"rotation":[
				0.6814509034156799,
				2.3339264032529172e-07,
				2.1731572985572711e-07,
				0.7318638563156128
			],
			"scale":[
				1,
				1.0000001192092896,
				1.0000064373016357
			],
			"translation":[
				0,
				-0.016149351373314857,
				1.053075909614563
			]
		},
		{
			"name":"neutral_bone",
			"rotation":[
				-0.7071067690849304,
				0,
				0,
				0.7071067690849304
			]
		},
		{
			"mesh":0,
			"name":"FullBody",
			"skin":0
		},
		{
			"mesh":1,
			"name":"LowerBody",
			"skin":0
		},
		{
			"mesh":2,
			"name":"UpperBody",
			"skin":0
		},
		{
			"children":[
				0,
				8,
				9,
				10,
				6,
				7
			],
			"name":"Body"
		},
		{
			"children":[
				11
			],
			"name":"Root"
		},
		{
			"children":[
				12
			],
			"name":"Sketchfab_model",
			"rotation":[
				-0.70710688829422,
				0,
				0,
				0.7071066498756409
			]
		}
	],
	"materials":[
		{
			"doubleSided":true,
			"name":"Material.001",
			"pbrMetallicRoughness":{
				"baseColorFactor":[
					0.800000011920929,
					0.800000011920929,
					0.800000011920929,
					1
				],
				"metallicFactor":0,
				"roughnessFactor":0.6000000238418579
			}
		}
	],
	"meshes":[
		{
			"name":"Cube.002",
			"primitives":[
				{
					"attributes":{
						"POSITION":0,
						"NORMAL":1,
						"JOINTS_0":2,
						"WEIGHTS_0":3
					},
					"indices":4,
					"material":0
				}
			]
		},
		{
			"name":"Cube.001",
			"primitives":[
				{
					"attributes":{
						"POSITION":6,
						"NORMAL":7,
						"TEXCOORD_0":8,
						"JOINTS_0":9,
						"WEIGHTS_0":10
					},
					"indices":11,
					"material":0
				}
			]
		},
		{
			"name":"Cube.003",
			"primitives":[
				{
					"attributes":{
						"POSITION":12,
						"NORMAL":13,
						"TEXCOORD_0":14,
						"JOINTS_0":15,
						"WEIGHTS_0":16
					},
					"indices":17,
					"material":0
				}
			]
		}
	],
	"skins":[
		{
			"inverseBindMatrices":5,
			"joints":[
				6,
				5,
				2,
				1,
				3,
				4,
				7
			],
			"name":"Body"
		}
	],
	"accessors":[
		{
			"bufferView":0,
			"componentType":5126,
			"count":281,
			"max":[
				0.2016407996416092,
				1.7828102111816406,
				0.1065283790230751
			],
			"min":[
				-0.20163977146148682,
				0.0022415516432374716,
				-0.10878957808017731
			],
			"type":"VEC3"
		},
		{
			"bufferView":1,
			"componentType":5126,
			"count":281,
			"type":"VEC3"
		},
		{
			"bufferView":2,
			"componentType":5121,
			"count":281,
			"type":"VEC4"
		},
		{
			"bufferView":3,
			"componentType":5126,
			"count":281,
			"type":"VEC4"
		},
		{
			"bufferView":4,
			"componentType":5123,
			"count":1401,
			"type":"SCALAR"
		},
		{
			"bufferView":5,
			"componentType":5126,
			"count":7,
			"type":"MAT4"
		},
		{
			"bufferView":6,
			"componentType":5126,
			"count":268,
			"max":[
				0.2016407996416092,
				1.0133402347564697,
				0.11328950524330139
			],
			"min":[
				-0.20163977146148682,
				0.0028614415787160397,
				-0.0764302983880043
			],
			"type":"VEC3"
		},
		{
			"bufferView":7,
			"componentType":5126,
			"count":268,
			"type":"VEC3"
		},
		{
			"bufferView":8,
			"componentType":5126,
			"count":268,
			"type":"VEC2"
		},
		{
			"bufferView":9,
			"componentType":5121,
			"count":268,
			"type":"VEC4"
		},
		{
			"bufferView":10,
			"componentType":5126,
			"count":268,
			"type":"VEC4"
		},
		{
			"bufferView":11,
			"componentType":5123,
			"count":813,
			"type":"SCALAR"
		},
		{
			"bufferView":12,
			"componentType":5126,
			"count":189,
			"max":[
				0.1924094706773758,
				1.5116311311721802,
				0.12033916264772415
			],
			"min":[
				-0.18892931938171387,
				0.9721799492835999,
				-0.12504981458187103
			],
			"type":"VEC3"
		},
		{
			"bufferView":13,
			"componentType":5126,
			"count":189,
			"type":"VEC3"
		},
		{
			"bufferView":14,
			"componentType":5126,
			"count":189,
			"type":"VEC2"
		},
		{
			"bufferView":15,
			"componentType":5121,
			"count":189,
			"type":"VEC4"
		},
		{
			"bufferView":16,
			"componentType":5126,
			"count":189,
			"type":"VEC4"
		},
		{
			"bufferView":17,
			"componentType":5123,
			"count":657,
			"type":"SCALAR"
		}
	],
	"bufferViews":[
		{
			"buffer":0,
			"byteLength":3372,
			"byteOffset":0,
			"target":34962
		},
		{
			"buffer":0,
			"byteLength":3372,
			"byteOffset":3372,
			"target":34962
		},
		{
			"buffer":0,
			"byteLength":1124,
			"byteOffset":6744,
			"target":34962
		},
		{
			"buffer":0,
			"byteLength":4496,
			"byteOffset":7868,
			"target":34962
		},
		{
			"buffer":0,
			"byteLength":2802,
			"byteOffset":12364,
			"target":34963
		},
		{
			"buffer":0,
			"byteLength":448,
			"byteOffset":15168
		},
		{
			"buffer":0,
			"byteLength":3216,
			"byteOffset":15616,
			"target":34962
		},
		{
			"buffer":0,
			"byteLength":3216,
			"byteOffset":18832,
			"target":34962
		},
		{
			"buffer":0,
			"byteLength":2144,
			"byteOffset":22048,
			"target":34962
		},
		{
			"buffer":0,
			"byteLength":1072,
			"byteOffset":24192,
			"target":34962
		},
		{
			"buffer":0,
			"byteLength":4288,
			"byteOffset":25264,
			"target":34962
		},
		{
			"buffer":0,
			"byteLength":1626,
			"byteOffset":29552,
			"target":34963
		},
		{
			"buffer":0,
			"byteLength":2268,
			"byteOffset":31180,
			"target":34962
		},
		{
			"buffer":0,
			"byteLength":2268,
			"byteOffset":33448,
			"target":34962
		},
		{
			"buffer":0,
			"byteLength":1512,
			"byteOffset":35716,
			"target":34962
		},
		{
			"buffer":0,
			"byteLength":756,
			"byteOffset":37228,
			"target":34962
		},
		{
			"buffer":0,
			"byteLength":3024,
			"byteOffset":37984,
			"target":34962
		},
		{
			"buffer":0,
			"byteLength":1314,
			"byteOffset":41008,
			"target":34963
		}
	],
	"buffers":[
		{
			"byteLength":42324,
			"uri":"scene.bin"
		}
	]
}
